<svg width="31" height="34" viewBox="0 0 31 34" fill="none" xmlns="http://www.w3.org/2000/svg">
<path d="M29.0941 22.7529L30.2104 16.2929C30.2759 15.9143 30.2579 15.5259 30.1576 15.155C30.0573 14.784 29.8773 14.4395 29.6299 14.1454C29.3826 13.8513 29.074 13.6148 28.7258 13.4525C28.3775 13.2901 27.998 13.2058 27.6137 13.2054H19.4105C19.219 13.2055 19.0299 13.1638 18.8561 13.0834C18.6824 13.003 18.5282 12.8857 18.4044 12.7397C18.2805 12.5937 18.19 12.4225 18.139 12.238C18.0879 12.0535 18.0777 11.8601 18.109 11.6712L19.1587 5.2666C19.3291 4.22672 19.2805 3.16273 19.0162 2.14268C18.9031 1.7212 18.6853 1.33515 18.383 1.02041C18.0807 0.705666 17.7038 0.472449 17.2872 0.34243L17.0576 0.268013C16.5386 0.101272 15.9753 0.139803 15.4838 0.37568C14.9455 0.635346 14.5528 1.10876 14.4071 1.67085L13.6535 4.57468C13.4135 5.49876 13.0649 6.39112 12.6148 7.2331C11.9577 8.46335 10.9412 9.44976 9.88354 10.3602L7.60512 12.3235C7.28904 12.5967 7.04217 12.9408 6.88475 13.3278C6.72733 13.7147 6.66383 14.1335 6.69945 14.5497L7.98512 29.4219C8.04179 30.0797 8.34302 30.6922 8.82934 31.1387C9.31566 31.5851 9.9517 31.833 10.6119 31.8333H17.9712C23.4844 31.8333 28.1885 27.9922 29.0941 22.7529Z" fill="#699BF7"/>
<path fill-rule="evenodd" clip-rule="evenodd" d="M1.69933 12.018C2.00533 12.0046 2.30466 12.11 2.5348 12.3121C2.76494 12.5142 2.90808 12.7974 2.93433 13.1026L4.47017 30.8929C4.49618 31.1578 4.46792 31.4253 4.38711 31.6789C4.3063 31.9325 4.17463 32.167 4.00014 32.3681C3.82566 32.5691 3.61203 32.7325 3.37229 32.8482C3.13255 32.9639 2.87175 33.0295 2.6058 33.0411C2.33985 33.0526 2.07434 33.0098 1.82549 32.9153C1.57663 32.8207 1.34966 32.6765 1.15843 32.4913C0.967207 32.3061 0.815737 32.0839 0.713275 31.8382C0.610814 31.5925 0.559511 31.3285 0.562502 31.0623V13.2039C0.562631 12.8978 0.680945 12.6036 0.89276 12.3826C1.10457 12.1617 1.39353 12.031 1.69933 12.018Z" fill="#699BF7"/>
</svg>
